<svg width="260" height="252" viewBox="0 0 260 252" fill="none" xmlns="http://www.w3.org/2000/svg">
<g clip-path="url(#clip0_19_74)">
<g filter="url(#filter0_f_19_74)">
<path d="M128 160C146.225 160 161 145.002 161 126.5C161 107.998 146.225 93 128 93C109.775 93 95 107.998 95 126.5C95 145.002 109.775 160 128 160Z" fill="#838383"/>
</g>
<path d="M160 84H92C86.4772 84 82 88.4772 82 94V154C82 159.523 86.4772 164 92 164H160C165.523 164 170 159.523 170 154V94C170 88.4772 165.523 84 160 84Z" fill="url(#paint0_linear_19_74)"/>
<path d="M106.469 108.812C105.847 108.812 105.251 109.059 104.812 109.499C104.372 109.939 104.125 110.535 104.125 111.156C104.125 111.778 104.372 112.374 104.812 112.814C105.251 113.253 105.847 113.5 106.469 113.5H122.094C122.715 113.5 123.311 113.253 123.751 112.814C124.191 112.374 124.438 111.778 124.438 111.156C124.438 110.535 124.191 109.939 123.751 109.499C123.311 109.059 122.715 108.812 122.094 108.812H106.469ZM115.844 118.188C115.222 118.188 114.626 118.434 114.187 118.874C113.747 119.314 113.5 119.91 113.5 120.531C113.5 121.153 113.747 121.749 114.187 122.189C114.626 122.628 115.222 122.875 115.844 122.875H126.781C127.403 122.875 127.999 122.628 128.438 122.189C128.878 121.749 129.125 121.153 129.125 120.531C129.125 119.91 128.878 119.314 128.438 118.874C127.999 118.434 127.403 118.188 126.781 118.188H115.844ZM110.375 129.906C110.375 129.285 110.622 128.689 111.062 128.249C111.501 127.809 112.097 127.562 112.719 127.562H136.156C136.778 127.562 137.374 127.809 137.814 128.249C138.253 128.689 138.5 129.285 138.5 129.906C138.5 130.528 138.253 131.124 137.814 131.564C137.374 132.003 136.778 132.25 136.156 132.25H112.719C112.097 132.25 111.501 132.003 111.062 131.564C110.622 131.124 110.375 130.528 110.375 129.906ZM106.469 136.938C105.847 136.938 105.251 137.184 104.812 137.624C104.372 138.064 104.125 138.66 104.125 139.281C104.125 139.903 104.372 140.499 104.812 140.939C105.251 141.378 105.847 141.625 106.469 141.625H128.344C128.965 141.625 129.561 141.378 130.001 140.939C130.441 140.499 130.688 139.903 130.688 139.281C130.688 138.66 130.441 138.064 130.001 137.624C129.561 137.184 128.965 136.938 128.344 136.938H106.469ZM133.812 120.531C133.812 119.91 134.059 119.314 134.499 118.874C134.939 118.434 135.535 118.188 136.156 118.188H142.406C143.028 118.188 143.624 118.434 144.064 118.874C144.503 119.314 144.75 119.91 144.75 120.531C144.75 121.153 144.503 121.749 144.064 122.189C143.624 122.628 143.028 122.875 142.406 122.875H136.156C135.535 122.875 134.939 122.628 134.499 122.189C134.059 121.749 133.812 121.153 133.812 120.531ZM131.469 108.812C130.847 108.812 130.251 109.059 129.812 109.499C129.372 109.939 129.125 110.535 129.125 111.156C129.125 111.778 129.372 112.374 129.812 112.814C130.251 113.253 130.847 113.5 131.469 113.5H145.531C146.153 113.5 146.749 113.253 147.189 112.814C147.628 112.374 147.875 111.778 147.875 111.156C147.875 110.535 147.628 109.939 147.189 109.499C146.749 109.059 146.153 108.812 145.531 108.812H131.469Z" fill="url(#paint1_linear_19_74)"/>
<path d="M170.5 125.5C191.5 125.5 216 118.5 237.5 79.5" stroke="#717171" stroke-width="1.17315" stroke-dasharray="2.35 2.35"/>
<path d="M250 33.5866H224C218.801 33.5866 214.587 37.8011 214.587 43V69C214.587 74.1989 218.801 78.4134 224 78.4134H250C255.199 78.4134 259.414 74.1989 259.414 69V43C259.414 37.8011 255.199 33.5866 250 33.5866Z" stroke="url(#paint2_linear_19_74)" stroke-width="1.17315"/>
<path d="M224 44L228.454 50.7281V54.9928H231.311V50.7281L235.974 44H232.899L230.044 48.332L227.212 44H224ZM237.101 44.0256L232.257 55.0188H234.548L235.6 52.5742H240.773L241.643 55.0188H244.091L239.444 44.0258L237.101 44.0256ZM238.328 46.3453L239.913 50.3792H236.558L238.328 46.3453ZM241.643 56.2235V66.9511H250V64.6586H244.091V56.2235H241.643ZM228.453 56.2257V67H230.856V59.5679L233.37 64.5633H235.26L237.86 59.3924V66.9976H240.164V56.2255H237.018L234.226 61.0981L231.567 56.2255L228.453 56.2257Z" fill="#717171"/>
</g>
<defs>
<filter id="filter0_f_19_74" x="2.7" y="0.699997" width="250.6" height="251.6" filterUnits="userSpaceOnUse" color-interpolation-filters="sRGB">
<feFlood flood-opacity="0" result="BackgroundImageFix"/>
<feBlend mode="normal" in="SourceGraphic" in2="BackgroundImageFix" result="shape"/>
<feGaussianBlur stdDeviation="46.15" result="effect1_foregroundBlur_19_74"/>
</filter>
<linearGradient id="paint0_linear_19_74" x1="82" y1="84" x2="5713.28" y2="6278.41" gradientUnits="userSpaceOnUse">
<stop stop-color="#EAFA35"/>
<stop offset="0.53" stop-color="#BCE41B"/>
<stop offset="1" stop-color="#8ECD01"/>
</linearGradient>
<linearGradient id="paint1_linear_19_74" x1="111.643" y1="113.914" x2="127.851" y2="147.859" gradientUnits="userSpaceOnUse">
<stop stop-color="#2B5A00"/>
<stop offset="1" stop-color="#203F04"/>
</linearGradient>
<linearGradient id="paint2_linear_19_74" x1="214" y1="40.475" x2="260.49" y2="41.1728" gradientUnits="userSpaceOnUse">
<stop stop-color="#3B3B3B"/>
<stop offset="1" stop-color="#787878"/>
</linearGradient>
<clipPath id="clip0_19_74">
<rect width="260" height="252" fill="white"/>
</clipPath>
</defs>
</svg>
