<svg width="195" height="80" viewBox="0 0 195 80" fill="none" xmlns="http://www.w3.org/2000/svg">
<path d="M68.2907 26.009C69.4048 26.117 70.5184 26.233 71.6293 26.353L74.0821 20.2965L76.4136 26.9117C77.6099 27.0616 78.8056 27.2189 79.9976 27.3832L75.9101 15.7829L79.9989 5.68583H76.536L76.5 5.73543L74.2912 11.1901L72.352 5.68663H68.9328L72.4627 15.704L68.2909 26.009H68.2907ZM65.7048 25.7717V5.68583H62.2869V25.4898C63.4269 25.5778 64.5675 25.6725 65.7048 25.7717ZM40.0301 24.6485C40.9528 24.6485 41.8744 24.6554 42.7944 24.6629V17.2837H46.9003V14.1413H42.7947V8.83196H47.5235V5.68583H39.3635V24.6512C39.5851 24.6512 39.8077 24.6477 40.0301 24.6485ZM29.4184 24.8405C30.5571 24.8 31.6968 24.7658 32.8381 24.7381V8.83249H36.0328V5.68663H26.2237V8.83249H29.4189V24.8405H29.4184ZM3.27867 26.9584V14.9917L7.3256 26.4752C8.57013 26.3354 9.81653 26.204 11.0664 26.0797V5.68609H7.78693V18.0816L3.42 5.68609H0V27.3885H0.0205333C1.104 27.2386 2.1912 27.0962 3.27867 26.9584ZM22.928 8.83169V5.68609H14.7672V25.7397C17.4824 25.5053 20.2007 25.3088 22.9213 25.1501V22.0016C21.3437 22.0933 19.7693 22.1989 18.1987 22.3165V17.285H22.3045V14.1408H18.1987V8.83169H22.928ZM54.2971 21.8512V5.68503H50.8643V24.852C53.5949 24.9522 56.3149 25.092 59.0259 25.268V22.1176C57.4525 22.016 55.8765 21.928 54.2971 21.8512Z" fill="#717171"/>
<path d="M31.6688 64.6057C34.9739 64.6057 37.655 67.2673 37.655 70.5485C37.655 73.8297 34.9739 76.4913 31.6688 76.4913C28.3636 76.4913 25.6826 73.8297 25.6826 70.5485C25.6826 67.2673 28.3612 64.6057 31.6688 64.6057ZM51.8596 64.5699C54.4758 64.5866 56.6481 66.45 57.1209 68.9138L57.1257 68.9472H46.5647C47.0639 66.4524 49.2385 64.5961 51.8548 64.5699H51.8596ZM70.8143 61.8082C70.7687 61.8058 70.7135 61.8058 70.6583 61.8058C68.9685 61.8058 67.4923 62.7042 66.6835 64.0457L66.6715 64.0671V61.944H63.2799V79.1362H66.7051V69.3547C66.6883 69.2212 66.6787 69.0663 66.6787 68.9091C66.6787 66.7598 68.4164 65.0131 70.5719 64.9774H72V61.8058H70.8119L70.8143 61.8082ZM51.9316 61.6057C47.0039 61.67 43.0315 65.6517 43.0315 70.5532C43.0315 75.4953 47.0663 79.5032 52.0468 79.5032C52.1116 79.5032 52.1788 79.5032 52.2436 79.5008H52.234C52.282 79.5008 52.3372 79.5032 52.3948 79.5032C55.3831 79.5032 58.033 78.0687 59.6844 75.8551L59.7012 75.8312L57.2241 74.0107C56.1344 75.5453 54.3558 76.5342 52.3468 76.5342C52.306 76.5342 52.2676 76.5342 52.2268 76.5342H52.234C49.3417 76.5342 46.9439 74.4325 46.5047 71.6827L46.4999 71.6493H60.5893V70.5389C60.5965 70.4174 60.5989 70.2745 60.5989 70.1315C60.5989 65.423 56.7537 61.6057 52.0108 61.6057C51.9844 61.6057 51.9556 61.6057 51.9292 61.6057H51.9316ZM22.3318 55.5366V79.1339H25.721V76.975C27.2907 78.5572 29.4701 79.5366 31.88 79.5366C31.8872 79.5366 31.8944 79.5366 31.9016 79.5366C31.9184 79.5366 31.94 79.5366 31.9616 79.5366C36.9589 79.5366 41.0105 75.5143 41.0105 70.5532C41.0105 65.5922 36.9589 61.5699 31.9616 61.5699C31.9424 61.5699 31.9208 61.5699 31.9016 61.5699H31.904C31.9016 61.5699 31.8968 61.5699 31.8944 61.5699C29.4917 61.5699 27.3171 62.5517 25.7618 64.1315L25.7594 64.1339V55.5413H22.3318V55.5366ZM0.0144013 55.5366V70.3007C0.00480029 70.4484 0 70.6223 0 70.7987C0 75.6263 3.94119 79.5366 8.80168 79.5366C8.87609 79.5366 8.94809 79.5366 9.0225 79.5342H9.0105C9.0465 79.5342 9.08731 79.5342 9.12811 79.5342C11.5452 79.5342 13.7294 78.5429 15.2895 76.944L15.2919 76.9416V79.1339H18.8203V55.5366H15.2559V70.091C15.2655 70.2196 15.2727 70.3698 15.2727 70.5223C15.2727 73.7391 12.6541 76.3483 9.41854 76.3626C9.40894 76.3626 9.39214 76.3626 9.38014 76.3626C6.16382 76.3626 3.55716 73.7748 3.55716 70.5818C3.55716 70.4079 3.56436 70.2387 3.57876 70.0695L3.57636 70.091V55.5389H0.00960084L0.0144013 55.5366Z" fill="#717171"/>
<path d="M188.912 9.63106L183.824 8.44989L182.916 8.08646L159.565 8.26817V19.5347L188.912 19.6256V9.63106Z" fill="white"/>
<path d="M179.372 18.5352C179.645 17.6266 179.554 16.7181 179.1 16.1729C178.645 15.6277 178.009 15.2643 177.192 15.1735L161.382 14.9917C161.291 14.9917 161.2 14.9009 161.11 14.9009C161.019 14.81 161.019 14.7192 161.11 14.6283C161.2 14.4466 161.291 14.3557 161.473 14.3557L177.373 14.174C179.281 14.0831 181.28 12.5385 182.007 10.7214L182.916 8.35903C182.916 8.26817 183.007 8.17731 182.916 8.08645C181.916 3.45264 177.737 0 172.83 0C168.287 0 164.381 2.90749 163.018 6.99614C162.109 6.36013 161.019 5.99669 159.747 6.08755C157.566 6.26927 155.84 8.08645 155.567 10.2671C155.476 10.8122 155.567 11.3574 155.658 11.9025C152.115 11.9934 149.207 14.9009 149.207 18.5352C149.207 18.8987 149.207 19.1713 149.298 19.5347C149.298 19.7164 149.48 19.8073 149.57 19.8073H178.736C178.918 19.8073 179.1 19.7164 179.1 19.5347L179.372 18.5352Z" fill="#717171"/>
<path d="M184.369 8.35904H183.915C183.824 8.35904 183.733 8.4499 183.643 8.54076L183.007 10.7214C182.734 11.63 182.825 12.5386 183.279 13.0837C183.733 13.6289 184.369 13.9923 185.187 14.0832L188.549 14.2649C188.64 14.2649 188.731 14.3557 188.822 14.3557C188.912 14.4466 188.912 14.5375 188.822 14.6283C188.731 14.81 188.64 14.9009 188.458 14.9009L185.006 15.0826C183.097 15.1735 181.099 16.7181 180.372 18.5352L180.19 19.353C180.099 19.4438 180.19 19.6256 180.372 19.6256H192.365C192.547 19.6256 192.638 19.5347 192.638 19.353C192.819 18.6261 193.001 17.8084 193.001 16.9906C193.001 12.266 189.094 8.35904 184.369 8.35904Z" fill="#717171"/>
<path d="M194.182 24.7137C193.728 24.7137 193.365 24.3502 193.365 23.8959C193.365 23.4416 193.728 23.0782 194.182 23.0782C194.637 23.0782 195 23.4416 195 23.8959C195 24.3502 194.637 24.7137 194.182 24.7137ZM194.182 23.2599C193.819 23.2599 193.546 23.5325 193.546 23.8959C193.546 24.2594 193.819 24.5319 194.182 24.5319C194.546 24.5319 194.818 24.2594 194.818 23.8959C194.818 23.5325 194.546 23.2599 194.182 23.2599ZM194.546 24.3502H194.364L194.182 24.0776H194.001V24.3502H193.819V23.5325H194.273C194.455 23.5325 194.546 23.6234 194.546 23.8051C194.546 23.8959 194.455 23.9868 194.364 24.0776L194.546 24.3502ZM194.273 23.8959C194.364 23.8959 194.364 23.8959 194.364 23.8051C194.364 23.7142 194.273 23.7142 194.273 23.7142H194.001V23.9868H194.273V23.8959ZM112.773 23.0782H114.771V28.5297H118.224V30.2561H112.773V23.0782ZM120.314 26.6217C120.314 24.5319 121.949 22.8965 124.221 22.8965C126.492 22.8965 128.037 24.5319 128.037 26.6217C128.037 28.7115 126.401 30.3469 124.13 30.3469C121.949 30.3469 120.314 28.7115 120.314 26.6217ZM126.038 26.6217C126.038 25.5314 125.311 24.6228 124.221 24.6228C123.131 24.6228 122.404 25.5314 122.404 26.5308C122.404 27.5303 123.131 28.4389 124.221 28.4389C125.311 28.6206 126.038 27.712 126.038 26.6217ZM130.49 27.076V23.0782H132.489V27.076C132.489 28.0754 133.034 28.6206 133.852 28.6206C134.67 28.6206 135.215 28.1663 135.215 27.1669V23.0782H137.214V27.076C137.214 29.4383 135.851 30.4378 133.852 30.4378C131.762 30.3469 130.49 29.3475 130.49 27.076ZM140.212 23.0782H143.029C145.573 23.0782 147.117 24.5319 147.117 26.6217C147.117 28.7115 145.573 30.2561 143.029 30.2561H140.303V23.0782H140.212ZM143.029 28.4389C144.21 28.4389 145.028 27.8029 145.028 26.6217C145.028 25.4405 144.21 24.8045 143.029 24.8045H142.211V28.4389H143.029ZM149.934 23.0782H155.658V24.8045H151.933V25.9857H155.295V27.6212H151.933V30.2561H149.934V23.0782ZM158.475 23.0782H160.474V28.5297H163.926V30.2561H158.475V23.0782ZM169.105 22.9873H171.104L174.193 30.2561H172.013L171.468 28.984H168.651L168.106 30.2561H166.016L169.105 22.9873ZM170.922 27.4394L170.105 25.4405L169.287 27.4394H170.922ZM176.737 23.0782H180.099C181.189 23.0782 181.916 23.3508 182.461 23.8959C182.916 24.3502 183.097 24.8954 183.097 25.5314C183.097 26.6217 182.552 27.3486 181.644 27.712L183.37 30.2561H181.099L179.645 28.0755H178.736V30.2561H176.737V23.0782ZM180.008 26.5308C180.644 26.5308 181.099 26.1674 181.099 25.7131C181.099 25.168 180.644 24.8954 180.008 24.8954H178.736V26.6217H180.008V26.5308ZM185.914 23.0782H191.729V24.7137H187.913V25.804H191.366V27.4394H187.913V28.5297H191.82V30.2561H185.914V23.0782ZM108.411 27.5303C108.139 28.1663 107.503 28.6206 106.776 28.6206C105.686 28.6206 104.959 27.712 104.959 26.7126C104.959 25.7131 105.686 24.8045 106.776 24.8045C107.594 24.8045 108.23 25.3497 108.502 25.9857H110.592C110.229 24.2594 108.775 22.9873 106.776 22.9873C104.595 22.9873 102.869 24.6228 102.869 26.7126C102.869 28.8023 104.504 30.4378 106.685 30.4378C108.593 30.4378 110.047 29.1658 110.501 27.5303H108.411Z" fill="#717171"/>
<path d="M118.754 67.0449L118.725 66.969L115.853 59.4761C115.795 59.329 115.691 59.2042 115.557 59.1198C115.458 59.0559 115.344 59.0163 115.226 59.0041C115.108 58.9919 114.989 59.0075 114.878 59.0497C114.768 59.0918 114.668 59.1593 114.588 59.2468C114.508 59.3343 114.45 59.4393 114.418 59.5534L112.479 65.4894H104.627L102.688 59.5534C102.656 59.4394 102.597 59.3346 102.517 59.2473C102.437 59.16 102.338 59.0926 102.227 59.0505C102.116 59.0084 101.997 58.9927 101.88 59.0048C101.762 59.0168 101.648 59.0562 101.549 59.1198C101.415 59.2042 101.311 59.329 101.253 59.4761L98.382 66.9704L98.3522 67.0449C97.9388 68.1252 97.8879 69.3107 98.2071 70.4225C98.5263 71.5342 99.1983 72.5121 100.122 73.2086L100.133 73.2168L100.157 73.2357L104.527 76.5107L106.695 78.1488L108.012 79.1447C108.166 79.2614 108.355 79.3246 108.548 79.3246C108.742 79.3246 108.93 79.2614 109.085 79.1447L110.402 78.1488L112.57 76.5107L116.971 73.2168L116.983 73.2073C117.906 72.511 118.578 71.5335 118.898 70.4219C119.217 69.3104 119.167 68.1252 118.754 67.0449Z" fill="#717171"/>
<path d="M135.951 66.6574H139.037C138.523 63.3757 135.681 61.0899 131.984 61.0899C127.608 61.0899 124.325 64.3066 124.325 69.6939C124.325 74.985 127.461 78.2667 132.073 78.2667C136.212 78.2667 139.176 75.6042 139.176 71.2941V69.286H132.391V71.6531H136.245C136.196 74.0379 134.604 75.5473 132.089 75.5473C129.29 75.5473 127.371 73.4498 127.371 69.6614C127.371 65.8973 129.322 63.8079 132.024 63.8079C134.04 63.8079 135.42 64.8851 135.951 66.6574Z" fill="#717171"/>
<path d="M141.216 78.0377H144.171V65.5043H141.216V78.0377ZM142.707 63.5126C143.646 63.5126 144.413 62.7931 144.413 61.9124C144.413 61.0316 143.646 60.304 142.707 60.304C141.768 60.304 140.993 61.0221 140.993 61.9124C140.993 62.8026 141.754 63.5126 142.701 63.5126H142.707Z" fill="#717171"/>
<path d="M153.021 65.5043H150.546V62.4936H147.591V65.5043H145.812V67.7901H147.591V74.7628C147.575 77.1217 149.29 78.2856 151.51 78.2165C152.101 78.2048 152.687 78.1057 153.25 77.9225L152.751 75.611C152.469 75.6842 152.178 75.7229 151.887 75.7261C151.143 75.7261 150.546 75.4646 150.546 74.2723V67.7834H153.021V65.5043Z" fill="#717171"/>
<path d="M155.308 78.0377H165.7V75.4985H158.337V61.3175H155.308V78.0377Z" fill="#717171"/>
<path d="M171.361 78.2911C173.329 78.2911 174.503 77.3683 175.043 76.3155H175.14V78.0377H177.986V69.6451C177.986 66.3309 175.284 65.335 172.891 65.335C170.254 65.335 168.23 66.5097 167.577 68.7955L170.337 69.1885C170.63 68.3308 171.463 67.5964 172.911 67.5964C174.284 67.5964 175.035 68.2983 175.035 69.5313V69.58C175.035 70.4282 174.144 70.4702 171.932 70.706C169.5 70.9675 167.173 71.6938 167.173 74.5189C167.165 76.9849 168.968 78.2911 171.361 78.2911ZM172.333 76.1231C171.1 76.1231 170.218 75.5595 170.218 74.4741C170.218 73.3387 171.205 72.8658 172.521 72.6775C173.298 72.5718 174.849 72.3753 175.231 72.0664V73.5433C175.239 74.9348 174.112 76.1191 172.333 76.1191V76.1231Z" fill="#717171"/>
<path d="M180.162 78.0377H183.068V76.0622H183.239C183.705 76.9768 184.676 78.2586 186.832 78.2586C189.787 78.2586 192 75.9145 192 71.7846C192 67.6045 189.722 65.335 186.824 65.335C184.611 65.335 183.689 66.6655 183.239 67.572H183.114V61.3175H180.162V78.0377ZM183.06 71.7683C183.06 69.3294 184.105 67.759 186.007 67.759C187.974 67.759 188.988 69.4324 188.988 71.7683C188.988 74.1043 187.96 75.8332 186.007 75.8332C184.121 75.8332 183.06 74.2005 183.06 71.7683Z" fill="#717171"/>
</svg>
